; Drill file
; Format: 3.3 (000.000)
M48
METRIC
T01C0.4
T02C0.8
%
G05
G90
T01
X5080Y-13280
X5940Y-12140
X8910Y-9080
X8910Y-7990
X8910Y-6900
X8910Y-5800
X6890Y-4200
X12640Y-5640
X11410Y-17970
X37000Y-9240
T02
X4090Y-18820
X19610Y-18010
X22150Y-18010
X24690Y-18010
X27230Y-18010
X29770Y-18010
X32310Y-18010
X29100Y-2240
X26560Y-2240
X24020Y-2240
X4090Y-1480
M30
