%FSLAX34Y34*%
%MOMM*%
%LNSILK_TOP*%
G71*
G01*
%ADD10C, 0.20*%
%ADD11C, 0.10*%
%ADD12C, 0.32*%
%ADD13C, 0.16*%
%ADD14C, 0.24*%
%LPD*%
G54D10*
X86212Y-50875D02*
X182212Y-50875D01*
X182212Y-150875D01*
X82212Y-150875D01*
X82212Y-54875D01*
X86212Y-50875D01*
G54D11*
X143100Y-26800D02*
X123100Y-26800D01*
X123100Y-14800D01*
X143100Y-14800D01*
X143100Y-26800D01*
G54D11*
X134700Y-16800D02*
X134700Y-25000D01*
G54D11*
X131500Y-16800D02*
X131500Y-25000D01*
G54D11*
X138600Y-20900D02*
X134700Y-20900D01*
G54D11*
X131500Y-20900D02*
X127700Y-20900D01*
G54D11*
X148300Y-185600D02*
X128300Y-185600D01*
X128300Y-173600D01*
X148300Y-173600D01*
X148300Y-185600D01*
G54D11*
X139900Y-175600D02*
X139900Y-183800D01*
G54D11*
X136700Y-175600D02*
X136700Y-183800D01*
G54D11*
X143800Y-179700D02*
X139900Y-179700D01*
G54D11*
X136700Y-179700D02*
X132900Y-179700D01*
G54D11*
X209600Y-111700D02*
X209600Y-91700D01*
X221600Y-91700D01*
X221600Y-111700D01*
X209600Y-111700D01*
G54D11*
X219600Y-103300D02*
X211400Y-103300D01*
G54D11*
X219600Y-100100D02*
X211400Y-100100D01*
G54D11*
X215500Y-107200D02*
X215500Y-103300D01*
G54D11*
X215500Y-100100D02*
X215500Y-96300D01*
G54D11*
X54900Y-71600D02*
X54900Y-91600D01*
X42900Y-91600D01*
X42900Y-71600D01*
X54900Y-71600D01*
G54D11*
X44900Y-80000D02*
X53100Y-80000D01*
G54D11*
X44900Y-83200D02*
X53100Y-83200D01*
G54D11*
X49000Y-76100D02*
X49000Y-80000D01*
G54D11*
X49000Y-83200D02*
X49000Y-87000D01*
G54D12*
X15900Y-189222D02*
X26567Y-189222D01*
G54D12*
X15400Y-15822D02*
X26067Y-15822D01*
G54D12*
X20733Y-11378D02*
X20733Y-20267D01*
G54D10*
X323100Y-192800D02*
X329500Y-192800D01*
X335800Y-186500D01*
X335800Y-173700D01*
X329500Y-167400D01*
X316700Y-167400D01*
X310400Y-173700D01*
X310400Y-186500D01*
X316700Y-192800D01*
X323100Y-192800D01*
G54D10*
X297700Y-192800D02*
X304100Y-192800D01*
X310400Y-186500D01*
X310400Y-173700D01*
X304100Y-167400D01*
X291300Y-167400D01*
X285000Y-173700D01*
X285000Y-186500D01*
X291300Y-192800D01*
X297700Y-192800D01*
G54D10*
X272300Y-192800D02*
X278700Y-192800D01*
X285000Y-186500D01*
X285000Y-173700D01*
X278700Y-167400D01*
X265900Y-167400D01*
X259600Y-173700D01*
X259600Y-186500D01*
X265900Y-192800D01*
X272300Y-192800D01*
G54D10*
X246900Y-192800D02*
X253300Y-192800D01*
X259600Y-186500D01*
X259600Y-173700D01*
X253300Y-167400D01*
X240500Y-167400D01*
X234200Y-173700D01*
X234200Y-186500D01*
X240500Y-192800D01*
X246900Y-192800D01*
G54D10*
X221500Y-192800D02*
X227900Y-192800D01*
X234200Y-186500D01*
X234200Y-173700D01*
X227900Y-167400D01*
X215100Y-167400D01*
X208800Y-173700D01*
X208800Y-186500D01*
X215100Y-192800D01*
X221500Y-192800D01*
G54D10*
X196100Y-192800D02*
X202500Y-192800D01*
X208800Y-186500D01*
X208800Y-173700D01*
X202500Y-167400D01*
X189700Y-167400D01*
X183400Y-173700D01*
X183400Y-186500D01*
X189700Y-192800D01*
X196100Y-192800D01*
G54D13*
X330600Y-162500D02*
X321711Y-162500D01*
X327267Y-159167D01*
X321711Y-155833D01*
X330600Y-155833D01*
G54D13*
X323378Y-147389D02*
X328933Y-147389D01*
X330044Y-148055D01*
X330600Y-149389D01*
X330600Y-150722D01*
X330044Y-152055D01*
X328933Y-152722D01*
X323378Y-152722D01*
X322267Y-152055D01*
X321711Y-150722D01*
X321711Y-149389D01*
X322267Y-148055D01*
X323378Y-147389D01*
G54D13*
X328933Y-144278D02*
X330044Y-143611D01*
X330600Y-142278D01*
X330600Y-140945D01*
X330044Y-139611D01*
X328933Y-138945D01*
X327822Y-138945D01*
X326711Y-139611D01*
X326156Y-140945D01*
X326156Y-142278D01*
X325600Y-143611D01*
X324489Y-144278D01*
X323378Y-144278D01*
X322267Y-143611D01*
X321711Y-142278D01*
X321711Y-140945D01*
X322267Y-139611D01*
X323378Y-138945D01*
G54D13*
X330600Y-135834D02*
X330600Y-130501D01*
G54D13*
X330600Y-133167D02*
X321711Y-133167D01*
G54D13*
X321711Y-135834D02*
X321711Y-130501D01*
G54D13*
X303700Y-162500D02*
X294811Y-162500D01*
X300367Y-159167D01*
X294811Y-155833D01*
X303700Y-155833D01*
G54D13*
X303700Y-152722D02*
X303700Y-147389D01*
G54D13*
X303700Y-150055D02*
X294811Y-150055D01*
G54D13*
X294811Y-152722D02*
X294811Y-147389D01*
G54D13*
X302033Y-144278D02*
X303144Y-143611D01*
X303700Y-142278D01*
X303700Y-140945D01*
X303144Y-139611D01*
X302033Y-138945D01*
X300922Y-138945D01*
X299811Y-139611D01*
X299256Y-140945D01*
X299256Y-142278D01*
X298700Y-143611D01*
X297589Y-144278D01*
X296478Y-144278D01*
X295367Y-143611D01*
X294811Y-142278D01*
X294811Y-140945D01*
X295367Y-139611D01*
X296478Y-138945D01*
G54D13*
X296478Y-130501D02*
X302033Y-130501D01*
X303144Y-131167D01*
X303700Y-132501D01*
X303700Y-133834D01*
X303144Y-135167D01*
X302033Y-135834D01*
X296478Y-135834D01*
X295367Y-135167D01*
X294811Y-133834D01*
X294811Y-132501D01*
X295367Y-131167D01*
X296478Y-130501D01*
G54D13*
X276633Y-163000D02*
X277744Y-162333D01*
X278300Y-161000D01*
X278300Y-159667D01*
X277744Y-158333D01*
X276633Y-157667D01*
X275522Y-157667D01*
X274411Y-158333D01*
X273856Y-159667D01*
X273856Y-161000D01*
X273300Y-162333D01*
X272189Y-163000D01*
X271078Y-163000D01*
X269967Y-162333D01*
X269411Y-161000D01*
X269411Y-159667D01*
X269967Y-158333D01*
X271078Y-157667D01*
G54D13*
X276633Y-149223D02*
X277744Y-149889D01*
X278300Y-151223D01*
X278300Y-152556D01*
X277744Y-153889D01*
X276633Y-154556D01*
X271078Y-154556D01*
X269967Y-153889D01*
X269411Y-152556D01*
X269411Y-151223D01*
X269967Y-149889D01*
X271078Y-149223D01*
G54D13*
X278300Y-146112D02*
X269411Y-146112D01*
G54D13*
X275522Y-146112D02*
X269411Y-140779D01*
G54D13*
X273856Y-144112D02*
X278300Y-140779D01*
G54D13*
X249256Y-160333D02*
X250367Y-158333D01*
X251478Y-157667D01*
X253700Y-157667D01*
G54D13*
X253700Y-163000D02*
X244811Y-163000D01*
X244811Y-159667D01*
X245367Y-158333D01*
X246478Y-157667D01*
X247589Y-157667D01*
X248700Y-158333D01*
X249256Y-159667D01*
X249256Y-163000D01*
G54D13*
X252033Y-154556D02*
X253144Y-153889D01*
X253700Y-152556D01*
X253700Y-151223D01*
X253144Y-149889D01*
X252033Y-149223D01*
X250922Y-149223D01*
X249811Y-149889D01*
X249256Y-151223D01*
X249256Y-152556D01*
X248700Y-153889D01*
X247589Y-154556D01*
X246478Y-154556D01*
X245367Y-153889D01*
X244811Y-152556D01*
X244811Y-151223D01*
X245367Y-149889D01*
X246478Y-149223D01*
G54D13*
X253700Y-143445D02*
X244811Y-143445D01*
G54D13*
X244811Y-146112D02*
X244811Y-140779D01*
G54D13*
X218911Y-163000D02*
X227800Y-159667D01*
X218911Y-156333D01*
G54D13*
X226133Y-147889D02*
X227244Y-148555D01*
X227800Y-149889D01*
X227800Y-151222D01*
X227244Y-152555D01*
X226133Y-153222D01*
X220578Y-153222D01*
X219467Y-152555D01*
X218911Y-151222D01*
X218911Y-149889D01*
X219467Y-148555D01*
X220578Y-147889D01*
G54D13*
X226133Y-139445D02*
X227244Y-140111D01*
X227800Y-141445D01*
X227800Y-142778D01*
X227244Y-144111D01*
X226133Y-144778D01*
X220578Y-144778D01*
X219467Y-144111D01*
X218911Y-142778D01*
X218911Y-141445D01*
X219467Y-140111D01*
X220578Y-139445D01*
G54D14*
X25833Y-54300D02*
X27500Y-55300D01*
X28333Y-57300D01*
X28333Y-59300D01*
X27500Y-61300D01*
X25833Y-62300D01*
X24167Y-62300D01*
X22500Y-61300D01*
X21667Y-59300D01*
X20833Y-61300D01*
X19167Y-62300D01*
X17500Y-62300D01*
X15833Y-61300D01*
X15000Y-59300D01*
X15000Y-57300D01*
X15833Y-55300D01*
X17500Y-54300D01*
G54D14*
X15000Y-67767D02*
X15000Y-66967D01*
X15667Y-66967D01*
X15667Y-67767D01*
X15000Y-67767D01*
X15000Y-66967D01*
G54D14*
X25833Y-72434D02*
X27500Y-73434D01*
X28333Y-75434D01*
X28333Y-77434D01*
X27500Y-79434D01*
X25833Y-80434D01*
X24167Y-80434D01*
X22500Y-79434D01*
X21667Y-77434D01*
X20833Y-79434D01*
X19167Y-80434D01*
X17500Y-80434D01*
X15833Y-79434D01*
X15000Y-77434D01*
X15000Y-75434D01*
X15833Y-73434D01*
X17500Y-72434D01*
G54D14*
X20833Y-85101D02*
X20833Y-93101D01*
G54D14*
X28333Y-105768D02*
X28333Y-97768D01*
X22500Y-97768D01*
X22500Y-98768D01*
X23333Y-100768D01*
X23333Y-102768D01*
X22500Y-104768D01*
X20833Y-105768D01*
X17500Y-105768D01*
X15833Y-104768D01*
X15000Y-102768D01*
X15000Y-100768D01*
X15833Y-98768D01*
X17500Y-97768D01*
G54D14*
X28333Y-110435D02*
X15000Y-115435D01*
X28333Y-120435D01*
G54D14*
X15000Y-125102D02*
X28333Y-125102D01*
X28333Y-130102D01*
X27500Y-132102D01*
X25833Y-133102D01*
X17500Y-133102D01*
X15833Y-132102D01*
X15000Y-130102D01*
X15000Y-125102D01*
G54D14*
X17500Y-145769D02*
X15833Y-144769D01*
X15000Y-142769D01*
X15000Y-140769D01*
X15833Y-138769D01*
X17500Y-137769D01*
X25833Y-137769D01*
X27500Y-138769D01*
X28333Y-140769D01*
X28333Y-142769D01*
X27500Y-144769D01*
X25833Y-145769D01*
G54D10*
X240200Y-9700D02*
X233800Y-9700D01*
X227500Y-16000D01*
X227500Y-28800D01*
X233800Y-35100D01*
X246600Y-35100D01*
X252900Y-28800D01*
X252900Y-16000D01*
X246600Y-9700D01*
X240200Y-9700D01*
G54D10*
X265600Y-9700D02*
X259200Y-9700D01*
X252900Y-16000D01*
X252900Y-28800D01*
X259200Y-35100D01*
X272000Y-35100D01*
X278300Y-28800D01*
X278300Y-16000D01*
X272000Y-9700D01*
X265600Y-9700D01*
G54D10*
X291000Y-9700D02*
X284600Y-9700D01*
X278300Y-16000D01*
X278300Y-28800D01*
X284600Y-35100D01*
X297400Y-35100D01*
X303700Y-28800D01*
X303700Y-16000D01*
X297400Y-9700D01*
X291000Y-9700D01*
G54D13*
X291356Y-59333D02*
X291356Y-56667D01*
X294133Y-56667D01*
X295244Y-57333D01*
X295800Y-58667D01*
X295800Y-60000D01*
X295244Y-61333D01*
X294133Y-62000D01*
X288578Y-62000D01*
X287467Y-61333D01*
X286911Y-60000D01*
X286911Y-58667D01*
X287467Y-57333D01*
X288578Y-56667D01*
G54D13*
X295800Y-53556D02*
X286911Y-53556D01*
X295800Y-48223D01*
X286911Y-48223D01*
G54D13*
X295800Y-45112D02*
X286911Y-45112D01*
X286911Y-41779D01*
X287467Y-40445D01*
X288578Y-39779D01*
X294133Y-39779D01*
X295244Y-40445D01*
X295800Y-41779D01*
X295800Y-45112D01*
G54D13*
X266156Y-59533D02*
X267267Y-57533D01*
X268378Y-56867D01*
X270600Y-56867D01*
G54D13*
X270600Y-62200D02*
X261711Y-62200D01*
X261711Y-58867D01*
X262267Y-57533D01*
X263378Y-56867D01*
X264489Y-56867D01*
X265600Y-57533D01*
X266156Y-58867D01*
X266156Y-62200D01*
G54D13*
X265600Y-53756D02*
X270600Y-48423D01*
G54D13*
X270600Y-53756D02*
X265600Y-48423D01*
G54D13*
X243400Y-59533D02*
X234511Y-59533D01*
G54D13*
X234511Y-62200D02*
X234511Y-56867D01*
G54D13*
X238400Y-53756D02*
X243400Y-48423D01*
G54D13*
X243400Y-53756D02*
X238400Y-48423D01*
G54D11*
X318400Y-37300D02*
X318400Y-57300D01*
X306400Y-57300D01*
X306400Y-37300D01*
X318400Y-37300D01*
G54D11*
X318400Y-42300D02*
X306400Y-42300D01*
G54D11*
X318400Y-52300D02*
X306400Y-52300D01*
G54D11*
X355200Y-37300D02*
X355200Y-57300D01*
X343200Y-57300D01*
X343200Y-37300D01*
X355200Y-37300D01*
G54D11*
X355200Y-42300D02*
X343200Y-42300D01*
G54D11*
X355200Y-52300D02*
X343200Y-52300D01*
G54D14*
X330855Y-29123D02*
X330855Y-21123D01*
G54D14*
X327522Y-16456D02*
X330855Y-8456D01*
G54D14*
X334188Y-16456D02*
X330855Y-8456D01*
G54D14*
X367922Y-8723D02*
X367922Y-16723D01*
G54D14*
X371255Y-21390D02*
X367922Y-29390D01*
G54D14*
X364588Y-21390D02*
X367922Y-29390D01*
G54D10*
X213400Y-3300D02*
X387200Y-3300D01*
X387200Y-82700D01*
X213400Y-82700D01*
X213400Y-3300D01*
G54D13*
X283200Y-68111D02*
X283200Y-75333D01*
X283867Y-76444D01*
X285200Y-77000D01*
X286533Y-77000D01*
X287867Y-76444D01*
X288533Y-75333D01*
X288533Y-68111D01*
G54D13*
X291644Y-77000D02*
X294977Y-68111D01*
X298311Y-77000D01*
G54D13*
X292977Y-73667D02*
X296977Y-73667D01*
G54D13*
X304089Y-72556D02*
X306089Y-73667D01*
X306755Y-74778D01*
X306755Y-77000D01*
G54D13*
X301422Y-77000D02*
X301422Y-68111D01*
X304755Y-68111D01*
X306089Y-68667D01*
X306755Y-69778D01*
X306755Y-70889D01*
X306089Y-72000D01*
X304755Y-72556D01*
X301422Y-72556D01*
G54D13*
X312533Y-77000D02*
X312533Y-68111D01*
G54D13*
X309866Y-68111D02*
X315199Y-68111D01*
G54D13*
X188212Y-160189D02*
X190878Y-160189D01*
X190878Y-162967D01*
X190212Y-164078D01*
X188878Y-164634D01*
X187545Y-164634D01*
X186212Y-164078D01*
X185545Y-162967D01*
X185545Y-157411D01*
X186212Y-156300D01*
X187545Y-155745D01*
X188878Y-155745D01*
X190212Y-156300D01*
X190878Y-157411D01*
G54D13*
X193989Y-164634D02*
X193989Y-155745D01*
X199322Y-164634D01*
X199322Y-155745D01*
G54D13*
X202433Y-164634D02*
X202433Y-155745D01*
X205766Y-155745D01*
X207100Y-156300D01*
X207766Y-157411D01*
X207766Y-162967D01*
X207100Y-164078D01*
X205766Y-164634D01*
X202433Y-164634D01*
G54D11*
X234100Y-132900D02*
X214100Y-132900D01*
X214100Y-120900D01*
X234100Y-120900D01*
X234100Y-132900D01*
G54D11*
X229100Y-132900D02*
X229100Y-120900D01*
G54D11*
X219100Y-132900D02*
X219100Y-120900D01*
G54D11*
X73300Y-165200D02*
X53300Y-165200D01*
X53300Y-153200D01*
X73300Y-153200D01*
X73300Y-165200D01*
G54D11*
X68300Y-165200D02*
X68300Y-153200D01*
G54D11*
X58300Y-165200D02*
X58300Y-153200D01*
G54D11*
X73300Y-181600D02*
X53300Y-181600D01*
X53300Y-169600D01*
X73300Y-169600D01*
X73300Y-181600D01*
G36*
X58300Y-169600D02*
X58300Y-181600D01*
X53300Y-181600D01*
X53300Y-169600D01*
X58300Y-169600D01*
G37*
G54D11*
X58300Y-169600D02*
X58300Y-181600D01*
X53300Y-181600D01*
X53300Y-169600D01*
X58300Y-169600D01*
G54D11*
X359900Y-102600D02*
X379900Y-102600D01*
X379900Y-114600D01*
X359900Y-114600D01*
X359900Y-102600D01*
G36*
X374900Y-114600D02*
X374900Y-102600D01*
X379900Y-102600D01*
X379900Y-114600D01*
X374900Y-114600D01*
G37*
G54D11*
X374900Y-114600D02*
X374900Y-102600D01*
X379900Y-102600D01*
X379900Y-114600D01*
X374900Y-114600D01*
G54D13*
X302000Y-111233D02*
X302667Y-112344D01*
X304000Y-112900D01*
X305333Y-112900D01*
X306667Y-112344D01*
X307333Y-111233D01*
X307333Y-110122D01*
X306667Y-109011D01*
X305333Y-108456D01*
X304000Y-108456D01*
X302667Y-107900D01*
X302000Y-106789D01*
X302000Y-105678D01*
X302667Y-104567D01*
X304000Y-104011D01*
X305333Y-104011D01*
X306667Y-104567D01*
X307333Y-105678D01*
G54D13*
X313111Y-112900D02*
X313111Y-104011D01*
G54D13*
X310444Y-104011D02*
X315777Y-104011D01*
G54D13*
X318888Y-112900D02*
X322221Y-104011D01*
X325555Y-112900D01*
G54D13*
X320221Y-109567D02*
X324221Y-109567D01*
G54D13*
X331333Y-112900D02*
X331333Y-104011D01*
G54D13*
X328666Y-104011D02*
X333999Y-104011D01*
G54D13*
X337110Y-104011D02*
X337110Y-111233D01*
X337777Y-112344D01*
X339110Y-112900D01*
X340443Y-112900D01*
X341777Y-112344D01*
X342443Y-111233D01*
X342443Y-104011D01*
G54D13*
X345554Y-111233D02*
X346221Y-112344D01*
X347554Y-112900D01*
X348887Y-112900D01*
X350221Y-112344D01*
X350887Y-111233D01*
X350887Y-110122D01*
X350221Y-109011D01*
X348887Y-108456D01*
X347554Y-108456D01*
X346221Y-107900D01*
X345554Y-106789D01*
X345554Y-105678D01*
X346221Y-104567D01*
X347554Y-104011D01*
X348887Y-104011D01*
X350221Y-104567D01*
X350887Y-105678D01*
G54D13*
X81000Y-180500D02*
X81000Y-171611D01*
X84333Y-171611D01*
X85667Y-172167D01*
X86333Y-173278D01*
X86333Y-174389D01*
X85667Y-175500D01*
X84333Y-176056D01*
X81000Y-176056D01*
G54D13*
X89444Y-171611D02*
X89444Y-180500D01*
X92777Y-174944D01*
X96111Y-180500D01*
X96111Y-171611D01*
G54D13*
X101889Y-176056D02*
X103889Y-177167D01*
X104555Y-178278D01*
X104555Y-180500D01*
G54D13*
X99222Y-180500D02*
X99222Y-171611D01*
X102555Y-171611D01*
X103889Y-172167D01*
X104555Y-173278D01*
X104555Y-174389D01*
X103889Y-175500D01*
X102555Y-176056D01*
X99222Y-176056D01*
G54D13*
X355888Y-176945D02*
X359221Y-185834D01*
X362554Y-176945D01*
G54D13*
X365666Y-180279D02*
X368999Y-176945D01*
X368999Y-185834D01*
G54D13*
X372643Y-185834D02*
X372110Y-185834D01*
X372110Y-185390D01*
X372643Y-185390D01*
X372643Y-185834D01*
X372110Y-185834D01*
G54D13*
X381087Y-178612D02*
X381087Y-184168D01*
X380420Y-185279D01*
X379087Y-185834D01*
X377754Y-185834D01*
X376420Y-185279D01*
X375754Y-184168D01*
X375754Y-178612D01*
X376420Y-177501D01*
X377754Y-176945D01*
X379087Y-176945D01*
X380420Y-177501D01*
X381087Y-178612D01*
G54D11*
X325800Y-57300D02*
X325800Y-37300D01*
X337800Y-37300D01*
X337800Y-57300D01*
X325800Y-57300D01*
G36*
X337800Y-42300D02*
X325800Y-42300D01*
X325800Y-37300D01*
X337800Y-37300D01*
X337800Y-42300D01*
G37*
G54D11*
X337800Y-42300D02*
X325800Y-42300D01*
X325800Y-37300D01*
X337800Y-37300D01*
X337800Y-42300D01*
G54D11*
X362600Y-57300D02*
X362600Y-37300D01*
X374600Y-37300D01*
X374600Y-57300D01*
X362600Y-57300D01*
G36*
X374600Y-42300D02*
X362600Y-42300D01*
X362600Y-37300D01*
X374600Y-37300D01*
X374600Y-42300D01*
G37*
G54D11*
X374600Y-42300D02*
X362600Y-42300D01*
X362600Y-37300D01*
X374600Y-37300D01*
X374600Y-42300D01*
M02*
